ply
format ascii 1.0
element vertex 12
property float32 x
property float32 y
property float32 vx
property float32 vy
element face 14
property list uint8 int32 vertex_indices
end_header
0.1875 0.1 1.0 0.0
0.625 0.0 0.75 -0.25
0.9375 0.1 0.666 -0.333
0.4375 0.3125 0.4 0.6
0.75 0.375 0.2 0.8
0.125 0.5 0.3 0.7
0.1875 0.875 0.8 -0.2
0.5625 0.6875 1.0 0.0
0.875 0.625 -0.8 0.2
0.75 0.75 -0.3 0.7
0.4375 1.0 0.0 1.0
0.8125 0.9 0.4 0.6
3 0 3 1
3 1 3 4
3 1 4 2
3 0 5 3
3 3 5 6
3 3 6 7
3 3 7 4
3 2 4 8
3 4 7 8
3 7 6 10
3 7 10 9
3 8 7 9
3 9 10 11
3 8 9 11
