ply
format ascii 1.0
comment modified by shareply
comment obj_info slice
element vertex 400
property float32 x
property float32 y
property float32 z
property float32 vx
property float32 vy
property float32 vz
element face 722
property list uint8 int32 vertex_indices
end_header
0 0 0 -0.290629 0.956836 0
0.0526316 0 0 -0.457012 0.88946 0
0.105263 0 0 -0.53104 0.847347 0
0.157895 0 0 -0.589691 0.807629 0
0.210526 0 0 -0.663914 0.747809 0
0.263158 0 0 -0.761164 0.64856 0
0.315789 0 0 -0.868333 0.495981 0
0.368421 0 0 -0.957463 0.288557 0
0.421053 0 0 -0.999072 0.0430807 0
0.473684 0 0 -0.977907 -0.209042 0
0.526316 0 0 -0.899278 -0.437378 0
0.578947 0 0 -0.77624 -0.630438 0
0.631579 0 0 -0.416191 -0.909277 0
0.684211 0 0 0.979232 -0.202743 0
0.736842 0 0 0.958266 0.285878 0
0.789474 0 0 0.938039 0.346529 0
0.842105 0 0 0.92483 0.38038 0
0.894737 0 0 0.851586 0.524215 0
0.947368 0 0 0.576838 0.816859 0
1 0 0 0.114845 0.993383 0
0 0.0526316 0 -0.703742 0.710456 0
0.0526316 0.0526316 0 -0.746947 0.664883 0
0.105263 0.0526316 0 -0.763043 0.646348 0
0.157895 0.0526316 0 -0.783819 0.620989 0
0.210526 0.0526316 0 -0.822681 0.568504 0
0.263158 0.0526316 0 -0.879921 0.475119 0
0.315789 0.0526316 0 -0.943523 0.331308 0
0.368421 0.0526316 0 -0.990987 0.13396 0
0.421053 0.0526316 0 -0.993963 -0.109713 0
0.473684 0.0526316 0 -0.924879 -0.380261 0
0.526316 0.0526316 0 -0.75998 -0.649947 0
0.578947 0.0526316 0 -0.449154 -0.893454 0
0.631579 0.0526316 0 0.125323 -0.992116 0
0.684211 0.0526316 0 0.701375 -0.712792 0
0.736842 0.0526316 0 0.952394 -0.304871 0
0.789474 0.0526316 0 0.99037 -0.138445 0
0.842105 0.0526316 0 0.994805 -0.101796 0
0.894737 0.0526316 0 0.99941 -0.0343414 0
0.947368 0.0526316 0 0.839689 0.543068 0
1 0.0526316 0 -0.4124 0.911003 0
0 0.105263 0 -0.964113 0.265491 0
0.0526316 0.105263 0 -0.929285 0.369363 0
0.105263 0.105263 0 -0.906942 0.421254 0
0.157895 0.105263 0 -0.901439 0.432907 0
0.210526 0.105263 0 -0.914572 0.404423 0
0.263158 0.105263 0 -0.94321 0.332198 0
0.315789 0.105263 0 -0.977496 0.210956 0
0.368421 0.105263 0 -0.99937 0.0354819 0
0.421053 0.105263 0 -0.98091 -0.194461 0
0.473684 0.105263 0 -0.885177 -0.465254 0
0.526316 0.105263 0 -0.672299 -0.74028 0
0.578947 0.105263 0 -0.315351 -0.948975 0
0.631579 0.105263 0 0.134548 -0.990907 0
0.684211 0.105263 0 0.529632 -0.848228 0
0.736842 0.105263 0 0.754874 -0.65587 0
0.789474 0.105263 0 0.830481 -0.557046 0
0.842105 0.105263 0 0.812542 -0.582902 0
0.894737 0.105263 0 0.709298 -0.704909 0
0.947368 0.105263 0 0.0650126 -0.997884 0
1 0.105263 0 -0.994896 -0.10091 0
0 0.157895 0 -0.993269 -0.115828 0
0.0526316 0.157895 0 -0.992929 0.118714 0
0.105263 0.157895 0 -0.97219 0.234193 0
0.157895 0.157895 0 -0.959371 0.282148 0
0.210526 0.157895 0 -0.960136 0.279535 0
0.263158 0.157895 0 -0.972758 0.231823 0
0.315789 0.157895 0 -0.990558 0.137095 0
0.368421 0.157895 0 -0.999935 -0.0113691 0
0.421053 0.157895 0 -0.975779 -0.21876 0
0.473684 0.157895 0 -0.879723 -0.475487 0
0.526316 0.157895 0 -0.672522 -0.740077 0
0.578947 0.157895 0 -0.350161 -0.93669 0
0.631579 0.157895 0 0.021238 -0.999774 0
0.684211 0.157895 0 0.332907 -0.94296 0
0.736842 0.157895 0 0.514478 -0.857504 0
0.789474 0.157895 0 0.557465 -0.8302 0
0.842105 0.157895 0 0.464107 -0.885779 0
0.894737 0.157895 0 0.1655 -0.98621 0
0.947368 0.157895 0 -0.378852 -0.925457 0
1 0.157895 0 -0.835882 -0.548908 0
0 0.210526 0 -0.967651 -0.252294 0
0.0526316 0.210526 0 -0.999851 -0.0172585 0
0.105263 0.210526 0 -0.992659 0.120945 0
0.157895 0.210526 0 -0.982376 0.186914 0
0.210526 0.210526 0 -0.979561 0.201148 0
0.263158 0.210526 0 -0.98489 0.173181 0
0.315789 0.210526 0 -0.994712 0.1027 0
0.368421 0.210526 0 -0.999834 -0.0182446 0
0.421053 0.210526 0 -0.980134 -0.198334 0
0.473684 0.210526 0 -0.901603 -0.432565 0
0.526316 0.210526 0 -0.728873 -0.684649 0
0.578947 0.210526 0 -0.459569 -0.888142 0
0.631579 0.210526 0 -0.151017 -0.988531 0
0.684211 0.210526 0 0.106921 -0.994268 0
0.736842 0.210526 0 0.249753 -0.968309 0
0.789474 0.210526 0 0.254442 -0.967088 0
0.842105 0.210526 0 0.110766 -0.993847 0
0.894737 0.210526 0 -0.179188 -0.983815 0
0.947368 0.210526 0 -0.53881 -0.842427 0
1 0.210526 0 -0.827607 -0.561308 0
0 0.263158 0 -0.971133 -0.238538 0
0.0526316 0.263158 0 -0.999124 -0.0418433 0
0.105263 0.263158 0 -0.99657 0.0827552 0
0.157895 0.263158 0 -0.989343 0.145606 0
0.210526 0.263158 0 -0.98649 0.16382 0
0.263158 0.263158 0 -0.989018 0.147794 0
0.315789 0.263158 0 -0.99527 0.0971436 0
0.368421 0.263158 0 -0.999998 0.00215813 0
0.421053 0.263158 0 -0.988826 -0.149076 0
0.473684 0.263158 0 -0.934135 -0.356919 0
0.526316 0.263158 0 -0.804384 -0.59411 0
0.578947 0.263158 0 -0.593026 -0.805184 0
0.631579 0.263158 0 -0.343317 -0.93922 0
0.684211 0.263158 0 -0.131145 -0.991363 0
0.736842 0.263158 0 -0.0193878 -0.999812 0
0.789474 0.263158 0 -0.0365097 -0.999333 0
0.842105 0.263158 0 -0.181741 -0.983346 0
0.894737 0.263158 0 -0.42051 -0.907288 0
0.947368 0.263158 0 -0.677883 -0.73517 0
1 0.263158 0 -0.872131 -0.489272 0
0 0.315789 0 -0.988916 -0.148477 0
0.0526316 0.315789 0 -0.999958 0.00918159 0
0.105263 0.315789 0 -0.994753 0.102306 0
0.157895 0.315789 0 -0.989535 0.144294 0
0.210526 0.315789 0 -0.988073 0.153986 0
0.263158 0.315789 0 -0.989723 0.142997 0
0.315789 0.315789 0 -0.993981 0.109555 0
0.368421 0.315789 0 -0.99919 0.0402364 0
0.421053 0.315789 0 -0.996685 -0.0813536 0
0.473684 0.315789 0 -0.96533 -0.261034 0
0.526316 0.315789 0 -0.877371 -0.479812 0
0.578947 0.315789 0 -0.722076 -0.691814 0
0.631579 0.315789 0 -0.529278 -0.848448 0
0.684211 0.315789 0 -0.361109 -0.932524 0
0.736842 0.315789 0 -0.27578 -0.961221 0
0.789474 0.315789 0 -0.301343 -0.953516 0
0.842105 0.315789 0 -0.430281 -0.902695 0
0.894737 0.315789 0 -0.620081 -0.784538 0
0.947368 0.315789 0 -0.80526 -0.592922 0
1 0.315789 0 -0.932038 -0.36236 0
0 0.368421 0 -0.999996 -0.00266688 0
0.0526316 0.368421 0 -0.993646 0.112548 0
0.105263 0.368421 0 -0.98706 0.160348 0
0.157895 0.368421 0 -0.98642 0.164243 0
0.210526 0.368421 0 -0.988181 0.153294 0
0.263158 0.368421 0 -0.989541 0.144252 0
0.315789 0.368421 0 -0.991304 0.131596 0
0.368421 0.368421 0 -0.995683 0.0928184 0
0.421053 0.368421 0 -0.999994 0.00356203 0
0.473684 0.368421 0 -0.989117 -0.147131 0
0.526316 0.368421 0 -0.938459 -0.345392 0
0.578947 0.368421 0 -0.834076 -0.55165 0
0.631579 0.368421 0 -0.694788 -0.719214 0
0.684211 0.368421 0 -0.569533 -0.821969 0
0.736842 0.368421 0 -0.508788 -0.860892 0
0.789474 0.368421 0 -0.537571 -0.843219 0
0.842105 0.368421 0 -0.645245 -0.763976 0
0.894737 0.368421 0 -0.788971 -0.614431 0
0.947368 0.368421 0 -0.913259 -0.40738 0
1 0.368421 0 -0.982517 -0.186171 0
0 0.421053 0 -0.98054 0.196318 0
0.0526316 0.421053 0 -0.964522 0.264003 0
0.105263 0.421053 0 -0.96881 0.247805 0
0.157895 0.421053 0 -0.982295 0.187342 0
0.210526 0.421053 0 -0.9901 0.140367 0
0.263158 0.421053 0 -0.990435 0.137978 0
0.315789 0.421053 0 -0.986696 0.162574 0
0.368421 0.421053 0 -0.985848 0.167643 0
0.421053 0.421053 0 -0.993398 0.114718 0
0.473684 0.421053 0 -0.999964 -0.00852176 0
0.526316 0.421053 0 -0.982293 -0.18735 0
0.578947 0.421053 0 -0.923293 -0.384097 0
0.631579 0.421053 0 -0.832991 -0.553286 0
0.684211 0.421053 0 -0.748452 -0.663189 0
0.736842 0.421053 0 -0.710804 -0.70339 0
0.789474 0.421053 0 -0.739944 -0.672669 0
0.842105 0.421053 0 -0.822965 -0.568092 0
0.894737 0.421053 0 -0.919535 -0.393009 0
0.947368 0.421053 0 -0.984778 -0.173819 0
1 0.421053 0 -0.999205 0.039868 0
0 0.473684 0 -0.893571 0.448922 0
0.0526316 0.473684 0 -0.870469 0.492223 0
0.105263 0.473684 0 -0.917724 0.397218 0
0.157895 0.473684 0 -0.973618 0.228184 0
0.210526 0.473684 0 -0.994478 0.104946 0
0.263158 0.473684 0 -0.991913 0.126917 0
0.315789 0.473684 0 -0.974298 0.225263 0
0.368421 0.473684 0 -0.956765 0.290863 0
0.421053 0.473684 0 -0.963311 0.268387 0
0.473684 0.473684 0 -0.986623 0.163021 0
0.526316 0.473684 0 -0.999998 -0.00172603 0
0.578947 0.473684 0 -0.982175 -0.187967 0
0.631579 0.473684 0 -0.936121 -0.351678 0
0.684211 0.473684 0 -0.88863 -0.458626 0
0.736842 0.473684 0 -0.870835 -0.491576 0
0.789474 0.473684 0 -0.895869 -0.444318 0
0.842105 0.473684 0 -0.948478 -0.316842 0
0.894737 0.473684 0 -0.992468 -0.122503 0
0.947368 0.473684 0 -0.994678 0.103028 0
1 0.473684 0 -0.951111 0.308849 0
0 0.526316 0 -0.692941 0.720994 0
0.0526316 0.526316 0 -0.616424 0.787414 0
0.105263 0.526316 0 -0.631832 0.775106 0
0.157895 0.526316 0 -0.897336 0.441348 0
0.210526 0.526316 0 -0.98127 0.192639 0
0.263158 0.526316 0 -0.982487 0.18633 0
0.315789 0.526316 0 -0.911677 0.410907 0
0.368421 0.526316 0 -0.867067 0.498191 0
0.421053 0.526316 0 -0.88273 0.469881 0
0.473684 0.526316 0 -0.931584 0.363525 0
0.526316 0.526316 0 -0.978795 0.20484 0
0.578947 0.526316 0 -0.99957 0.0293195 0
0.631579 0.526316 0 -0.992494 -0.122296 0
0.684211 0.526316 0 -0.976254 -0.216627 0
0.736842 0.526316 0 -0.97217 -0.234278 0
0.789474 0.526316 0 -0.985768 -0.16811 0
0.842105 0.526316 0 -0.99974 -0.0227874 0
0.894737 0.526316 0 -0.983703 0.179803 0
0.947368 0.526316 0 -0.916845 0.399244 0
1 0.526316 0 -0.807426 0.589969 0
0 0.578947 0 -0.373022 0.927823 0
0.0526316 0.578947 0 -0.172046 0.985089 0
0.105263 0.578947 0 0.0407766 0.999168 0
0.157895 0.578947 0 -0.058462 0.99829 0
0.210526 0.578947 0 -0.578843 0.815439 0
0.263158 0.578947 0 -0.767372 0.641202 0
0.315789 0.578947 0 -0.639223 0.769021 0
0.368421 0.578947 0 -0.653185 0.757198 0
0.421053 0.578947 0 -0.726681 0.686975 0
0.473684 0.578947 0 -0.824778 0.565457 0
0.526316 0.578947 0 -0.912864 0.408265 0
0.578947 0.578947 0 -0.969357 0.245657 0
0.631579 0.578947 0 -0.993521 0.113648 0
0.684211 0.578947 0 -0.999135 0.0415867 0
0.736842 0.578947 0 -0.998932 0.0461992 0
0.789474 0.578947 0 -0.99139 0.130946 0
0.842105 0.578947 0 -0.958729 0.28432 0
0.894737 0.578947 0 -0.878626 0.477511 0
0.947368 0.578947 0 -0.742476 0.669872 0
1 0.578947 0 -0.564863 0.825185 0
0 0.631579 0 -0.0214836 0.999769 0
0.0526316 0.631579 0 0.269787 0.96292 0
0.105263 0.631579 0 0.591262 0.806479 0
0.157895 0.631579 0 0.78441 0.620243 0
0.210526 0.631579 0 0.718093 0.695948 0
0.263158 0.631579 0 0.207902 0.97815 0
0.315789 0.631579 0 -0.112162 0.99369 0
0.368421 0.631579 0 -0.326712 0.945124 0
0.421053 0.631579 0 -0.517385 0.855753 0
0.473684 0.631579 0 -0.686574 0.72706 0
0.526316 0.631579 0 -0.818196 0.57494 0
0.578947 0.631579 0 -0.902644 0.430387 0
0.631579 0.631579 0 -0.945364 0.326018 0
0.684211 0.631579 0 -0.958599 0.284758 0
0.736842 0.631579 0 -0.948734 0.316076 0
0.789474 0.631579 0 -0.90967 0.415332 0
0.842105 0.631579 0 -0.82662 0.562761 0
0.894737 0.631579 0 -0.688196 0.725525 0
0.947368 0.631579 0 -0.497448 0.867494 0
1 0.631579 0 -0.270797 0.962637 0
0 0.684211 0 0.247699 0.968837 0
0.0526316 0.684211 0 0.510939 0.859617 0
0.105263 0.684211 0 0.744094 0.668075 0
0.157895 0.684211 0 0.870079 0.492911 0
0.210526 0.684211 0 0.849565 0.527484 0
0.263158 0.684211 0 0.664811 0.747011 0
0.315789 0.684211 0 0.31232 0.949977 0
0.368421 0.684211 0 -0.0459852 0.998942 0
0.421053 0.684211 0 -0.338588 0.940935 0
0.473684 0.684211 0 -0.570139 0.821548 0
0.526316 0.684211 0 -0.732476 0.680793 0
0.578947 0.684211 0 -0.828485 0.560011 0
0.631579 0.684211 0 -0.871634 0.490157 0
0.684211 0.684211 0 -0.874294 0.485396 0
0.736842 0.684211 0 -0.839131 0.543929 0
0.789474 0.684211 0 -0.759889 0.650053 0
0.842105 0.684211 0 -0.629742 0.776804 0
0.894737 0.684211 0 -0.450617 0.892718 0
0.947368 0.684211 0 -0.235349 0.971911 0
1 0.684211 0 -6.29306e-005 1 0
0 0.736842 0 0.395645 0.918404 0
0.0526316 0.736842 0 0.580134 0.814521 0
0.105263 0.736842 0 0.726621 0.687039 0
0.157895 0.736842 0 0.801828 0.597554 0
0.210526 0.736842 0 0.786052 0.61816 0
0.263158 0.736842 0 0.653991 0.756503 0
0.315789 0.736842 0 0.393712 0.919234 0
0.368421 0.736842 0 0.0546191 0.998507 0
0.421053 0.736842 0 -0.273204 0.961956 0
0.473684 0.736842 0 -0.528475 0.848949 0
0.526316 0.736842 0 -0.693699 0.720265 0
0.578947 0.736842 0 -0.778494 0.627652 0
0.631579 0.736842 0 -0.801583 0.597883 0
0.684211 0.736842 0 -0.774518 0.632552 0
0.736842 0.736842 0 -0.698971 0.71515 0
0.789474 0.736842 0 -0.574471 0.818525 0
0.842105 0.736842 0 -0.407222 0.913329 0
0.894737 0.736842 0 -0.212125 0.977242 0
0.947368 0.736842 0 -0.0066371 0.999978 0
1 0.736842 0 0.197305 0.980342 0
0 0.789474 0 0.445725 0.89517 0
0.0526316 0.789474 0 0.56074 0.827992 0
0.105263 0.789474 0 0.647179 0.762338 0
0.157895 0.789474 0 0.685185 0.728369 0
0.210526 0.789474 0 0.651566 0.758592 0
0.263158 0.789474 0 0.521574 0.853206 0
0.315789 0.789474 0 0.283082 0.959096 0
0.368421 0.789474 0 -0.0309994 0.999519 0
0.421053 0.789474 0 -0.342546 0.939501 0
0.473684 0.789474 0 -0.579553 0.814934 0
0.526316 0.789474 0 -0.717631 0.696423 0
0.578947 0.789474 0 -0.770069 0.63796 0
0.631579 0.789474 0 -0.755099 0.655611 0
0.684211 0.789474 0 -0.68056 0.732692 0
0.736842 0.789474 0 -0.551032 0.834484 0
0.789474 0.789474 0 -0.379662 0.925125 0
0.842105 0.789474 0 -0.189407 0.981899 0
0.894737 0.789474 0 -0.00332011 0.999994 0
0.947368 0.789474 0 0.165054 0.986284 0
1 0.789474 0 0.313618 0.949549 0
0 0.842105 0 0.426036 0.904706 0
0.0526316 0.842105 0 0.476898 0.878959 0
0.105263 0.842105 0 0.510225 0.860041 0
0.157895 0.842105 0 0.508 0.861357 0
0.210526 0.842105 0 0.444776 0.895642 0
0.263158 0.842105 0 0.296265 0.955106 0
0.315789 0.842105 0 0.0570822 0.99837 0
0.368421 0.842105 0 -0.235988 0.971756 0
0.421053 0.842105 0 -0.509273 0.860605 0
0.473684 0.842105 0 -0.700166 0.71398 0
0.526316 0.842105 0 -0.79333 0.608792 0
0.578947 0.842105 0 -0.803161 0.595762 0
0.631579 0.842105 0 -0.737909 0.6749 0
0.684211 0.842105 0 -0.597625 0.801776 0
0.736842 0.842105 0 -0.398363 0.917228 0
0.789474 0.842105 0 -0.18026 0.983619 0
0.842105 0.842105 0 0.0160393 0.999871 0
0.894737 0.842105 0 0.170115 0.985424 0
0.947368 0.842105 0 0.282245 0.959342 0
1 0.842105 0 0.363303 0.931671 0
0 0.894737 0 0.349025 0.937114 0
0.0526316 0.894737 0 0.332035 0.943267 0
0.105263 0.894737 0 0.310415 0.950601 0
0.157895 0.894737 0 0.265719 0.964051 0
0.210526 0.894737 0 0.170969 0.985277 0
0.263158 0.894737 0 0.00487853 0.999988 0
0.315789 0.894737 0 -0.228895 0.973451 0
0.368421 0.894737 0 -0.487756 0.87298 0
0.421053 0.894737 0 -0.706551 0.707663 0
0.473684 0.894737 0 -0.842274 0.539049 0
0.526316 0.894737 0 -0.893868 0.44833 0
0.578947 0.894737 0 -0.869409 0.494093 0
0.631579 0.894737 0 -0.749402 0.662115 0
0.684211 0.894737 0 -0.513285 0.858218 0
0.736842 0.894737 0 -0.216296 0.976328 0
0.789474 0.894737 0 0.0462201 0.998931 0
0.842105 0.894737 0 0.223052 0.974807 0
0.894737 0.894737 0 0.321558 0.94689 0
0.947368 0.894737 0 0.361223 0.93248 0
1 0.894737 0 0.363279 0.931681 0
0 0.947368 0 0.217016 0.976168 0
0.0526316 0.947368 0 0.125416 0.992104 0
0.105263 0.947368 0 0.0524075 0.998626 0
0.157895 0.947368 0 -0.0249858 0.999688 0
0.210526 0.947368 0 -0.137347 0.990523 0
0.263158 0.947368 0 -0.302095 0.953278 0
0.315789 0.947368 0 -0.508551 0.861032 0
0.368421 0.947368 0 -0.71483 0.699298 0
0.421053 0.947368 0 -0.870693 0.491827 0
0.473684 0.947368 0 -0.953909 0.300097 0
0.526316 0.947368 0 -0.980048 0.198761 0
0.578947 0.947368 0 -0.960183 0.279372 0
0.631579 0.947368 0 -0.797038 0.60393 0
0.684211 0.947368 0 -0.39473 0.918797 0
0.736842 0.947368 0 0.0720926 0.997398 0
0.789474 0.947368 0 0.337756 0.941234 0
0.842105 0.947368 0 0.450904 0.892572 0
0.894737 0.947368 0 0.472572 0.881292 0
0.947368 0.947368 0 0.422297 0.906457 0
1 0.947368 0 0.325475 0.945551 0
0 1 0 0.0200911 0.999798 0
0.0526316 1 0 -0.143255 0.989686 0
0.105263 1 0 -0.242109 0.970249 0
0.157895 1 0 -0.325618 0.945501 0
0.210526 1 0 -0.429897 0.902878 0
0.263158 1 0 -0.568357 0.822782 0
0.315789 1 0 -0.727739 0.685855 0
0.368421 1 0 -0.872769 0.488134 0
0.421053 1 0 -0.967113 0.254347 0
0.473684 1 0 -0.999463 0.0327689 0
0.526316 1 0 -0.992463 -0.122542 0
0.578947 1 0 -0.987879 -0.155227 0
0.631579 1 0 -0.97119 0.238305 0
0.684211 1 0 0.0210931 0.999777 0
0.736842 1 0 0.572959 0.819584 0
0.789474 1 0 0.675024 0.737796 0
0.842105 1 0 0.700891 0.713268 0
0.894737 1 0 0.643762 0.765226 0
0.947368 1 0 0.486623 0.873612 0
1 1 0 0.250971 0.967995 0
3 0 20 1
3 20 21 1
3 1 21 2
3 21 22 2
3 2 22 3
3 22 23 3
3 3 23 4
3 23 24 4
3 4 24 5
3 24 25 5
3 5 25 6
3 25 26 6
3 6 26 7
3 26 27 7
3 7 27 8
3 27 28 8
3 8 28 9
3 28 29 9
3 9 29 10
3 29 30 10
3 10 30 11
3 30 31 11
3 11 31 12
3 31 32 12
3 12 32 13
3 32 33 13
3 13 33 14
3 33 34 14
3 14 34 15
3 34 35 15
3 15 35 16
3 35 36 16
3 16 36 17
3 36 37 17
3 17 37 18
3 37 38 18
3 18 38 19
3 38 39 19
3 20 40 21
3 40 41 21
3 21 41 22
3 41 42 22
3 22 42 23
3 42 43 23
3 23 43 24
3 43 44 24
3 24 44 25
3 44 45 25
3 25 45 26
3 45 46 26
3 26 46 27
3 46 47 27
3 27 47 28
3 47 48 28
3 28 48 29
3 48 49 29
3 29 49 30
3 49 50 30
3 30 50 31
3 50 51 31
3 31 51 32
3 51 52 32
3 32 52 33
3 52 53 33
3 33 53 34
3 53 54 34
3 34 54 35
3 54 55 35
3 35 55 36
3 55 56 36
3 36 56 37
3 56 57 37
3 37 57 38
3 57 58 38
3 38 58 39
3 58 59 39
3 40 60 41
3 60 61 41
3 41 61 42
3 61 62 42
3 42 62 43
3 62 63 43
3 43 63 44
3 63 64 44
3 44 64 45
3 64 65 45
3 45 65 46
3 65 66 46
3 46 66 47
3 66 67 47
3 47 67 48
3 67 68 48
3 48 68 49
3 68 69 49
3 49 69 50
3 69 70 50
3 50 70 51
3 70 71 51
3 51 71 52
3 71 72 52
3 52 72 53
3 72 73 53
3 53 73 54
3 73 74 54
3 54 74 55
3 74 75 55
3 55 75 56
3 75 76 56
3 56 76 57
3 76 77 57
3 57 77 58
3 77 78 58
3 58 78 59
3 78 79 59
3 60 80 61
3 80 81 61
3 61 81 62
3 81 82 62
3 62 82 63
3 82 83 63
3 63 83 64
3 83 84 64
3 64 84 65
3 84 85 65
3 65 85 66
3 85 86 66
3 66 86 67
3 86 87 67
3 67 87 68
3 87 88 68
3 68 88 69
3 88 89 69
3 69 89 70
3 89 90 70
3 70 90 71
3 90 91 71
3 71 91 72
3 91 92 72
3 72 92 73
3 92 93 73
3 73 93 74
3 93 94 74
3 74 94 75
3 94 95 75
3 75 95 76
3 95 96 76
3 76 96 77
3 96 97 77
3 77 97 78
3 97 98 78
3 78 98 79
3 98 99 79
3 80 100 81
3 100 101 81
3 81 101 82
3 101 102 82
3 82 102 83
3 102 103 83
3 83 103 84
3 103 104 84
3 84 104 85
3 104 105 85
3 85 105 86
3 105 106 86
3 86 106 87
3 106 107 87
3 87 107 88
3 107 108 88
3 88 108 89
3 108 109 89
3 89 109 90
3 109 110 90
3 90 110 91
3 110 111 91
3 91 111 92
3 111 112 92
3 92 112 93
3 112 113 93
3 93 113 94
3 113 114 94
3 94 114 95
3 114 115 95
3 95 115 96
3 115 116 96
3 96 116 97
3 116 117 97
3 97 117 98
3 117 118 98
3 98 118 99
3 118 119 99
3 100 120 101
3 120 121 101
3 101 121 102
3 121 122 102
3 102 122 103
3 122 123 103
3 103 123 104
3 123 124 104
3 104 124 105
3 124 125 105
3 105 125 106
3 125 126 106
3 106 126 107
3 126 127 107
3 107 127 108
3 127 128 108
3 108 128 109
3 128 129 109
3 109 129 110
3 129 130 110
3 110 130 111
3 130 131 111
3 111 131 112
3 131 132 112
3 112 132 113
3 132 133 113
3 113 133 114
3 133 134 114
3 114 134 115
3 134 135 115
3 115 135 116
3 135 136 116
3 116 136 117
3 136 137 117
3 117 137 118
3 137 138 118
3 118 138 119
3 138 139 119
3 120 140 121
3 140 141 121
3 121 141 122
3 141 142 122
3 122 142 123
3 142 143 123
3 123 143 124
3 143 144 124
3 124 144 125
3 144 145 125
3 125 145 126
3 145 146 126
3 126 146 127
3 146 147 127
3 127 147 128
3 147 148 128
3 128 148 129
3 148 149 129
3 129 149 130
3 149 150 130
3 130 150 131
3 150 151 131
3 131 151 132
3 151 152 132
3 132 152 133
3 152 153 133
3 133 153 134
3 153 154 134
3 134 154 135
3 154 155 135
3 135 155 136
3 155 156 136
3 136 156 137
3 156 157 137
3 137 157 138
3 157 158 138
3 138 158 139
3 158 159 139
3 140 160 141
3 160 161 141
3 141 161 142
3 161 162 142
3 142 162 143
3 162 163 143
3 143 163 144
3 163 164 144
3 144 164 145
3 164 165 145
3 145 165 146
3 165 166 146
3 146 166 147
3 166 167 147
3 147 167 148
3 167 168 148
3 148 168 149
3 168 169 149
3 149 169 150
3 169 170 150
3 150 170 151
3 170 171 151
3 151 171 152
3 171 172 152
3 152 172 153
3 172 173 153
3 153 173 154
3 173 174 154
3 154 174 155
3 174 175 155
3 155 175 156
3 175 176 156
3 156 176 157
3 176 177 157
3 157 177 158
3 177 178 158
3 158 178 159
3 178 179 159
3 160 180 161
3 180 181 161
3 161 181 162
3 181 182 162
3 162 182 163
3 182 183 163
3 163 183 164
3 183 184 164
3 164 184 165
3 184 185 165
3 165 185 166
3 185 186 166
3 166 186 167
3 186 187 167
3 167 187 168
3 187 188 168
3 168 188 169
3 188 189 169
3 169 189 170
3 189 190 170
3 170 190 171
3 190 191 171
3 171 191 172
3 191 192 172
3 172 192 173
3 192 193 173
3 173 193 174
3 193 194 174
3 174 194 175
3 194 195 175
3 175 195 176
3 195 196 176
3 176 196 177
3 196 197 177
3 177 197 178
3 197 198 178
3 178 198 179
3 198 199 179
3 180 200 181
3 200 201 181
3 181 201 182
3 201 202 182
3 182 202 183
3 202 203 183
3 183 203 184
3 203 204 184
3 184 204 185
3 204 205 185
3 185 205 186
3 205 206 186
3 186 206 187
3 206 207 187
3 187 207 188
3 207 208 188
3 188 208 189
3 208 209 189
3 189 209 190
3 209 210 190
3 190 210 191
3 210 211 191
3 191 211 192
3 211 212 192
3 192 212 193
3 212 213 193
3 193 213 194
3 213 214 194
3 194 214 195
3 214 215 195
3 195 215 196
3 215 216 196
3 196 216 197
3 216 217 197
3 197 217 198
3 217 218 198
3 198 218 199
3 218 219 199
3 200 220 201
3 220 221 201
3 201 221 202
3 221 222 202
3 202 222 203
3 222 223 203
3 203 223 204
3 223 224 204
3 204 224 205
3 224 225 205
3 205 225 206
3 225 226 206
3 206 226 207
3 226 227 207
3 207 227 208
3 227 228 208
3 208 228 209
3 228 229 209
3 209 229 210
3 229 230 210
3 210 230 211
3 230 231 211
3 211 231 212
3 231 232 212
3 212 232 213
3 232 233 213
3 213 233 214
3 233 234 214
3 214 234 215
3 234 235 215
3 215 235 216
3 235 236 216
3 216 236 217
3 236 237 217
3 217 237 218
3 237 238 218
3 218 238 219
3 238 239 219
3 220 240 221
3 240 241 221
3 221 241 222
3 241 242 222
3 222 242 223
3 242 243 223
3 223 243 224
3 243 244 224
3 224 244 225
3 244 245 225
3 225 245 226
3 245 246 226
3 226 246 227
3 246 247 227
3 227 247 228
3 247 248 228
3 228 248 229
3 248 249 229
3 229 249 230
3 249 250 230
3 230 250 231
3 250 251 231
3 231 251 232
3 251 252 232
3 232 252 233
3 252 253 233
3 233 253 234
3 253 254 234
3 234 254 235
3 254 255 235
3 235 255 236
3 255 256 236
3 236 256 237
3 256 257 237
3 237 257 238
3 257 258 238
3 238 258 239
3 258 259 239
3 240 260 241
3 260 261 241
3 241 261 242
3 261 262 242
3 242 262 243
3 262 263 243
3 243 263 244
3 263 264 244
3 244 264 245
3 264 265 245
3 245 265 246
3 265 266 246
3 246 266 247
3 266 267 247
3 247 267 248
3 267 268 248
3 248 268 249
3 268 269 249
3 249 269 250
3 269 270 250
3 250 270 251
3 270 271 251
3 251 271 252
3 271 272 252
3 252 272 253
3 272 273 253
3 253 273 254
3 273 274 254
3 254 274 255
3 274 275 255
3 255 275 256
3 275 276 256
3 256 276 257
3 276 277 257
3 257 277 258
3 277 278 258
3 258 278 259
3 278 279 259
3 260 280 261
3 280 281 261
3 261 281 262
3 281 282 262
3 262 282 263
3 282 283 263
3 263 283 264
3 283 284 264
3 264 284 265
3 284 285 265
3 265 285 266
3 285 286 266
3 266 286 267
3 286 287 267
3 267 287 268
3 287 288 268
3 268 288 269
3 288 289 269
3 269 289 270
3 289 290 270
3 270 290 271
3 290 291 271
3 271 291 272
3 291 292 272
3 272 292 273
3 292 293 273
3 273 293 274
3 293 294 274
3 274 294 275
3 294 295 275
3 275 295 276
3 295 296 276
3 276 296 277
3 296 297 277
3 277 297 278
3 297 298 278
3 278 298 279
3 298 299 279
3 280 300 281
3 300 301 281
3 281 301 282
3 301 302 282
3 282 302 283
3 302 303 283
3 283 303 284
3 303 304 284
3 284 304 285
3 304 305 285
3 285 305 286
3 305 306 286
3 286 306 287
3 306 307 287
3 287 307 288
3 307 308 288
3 288 308 289
3 308 309 289
3 289 309 290
3 309 310 290
3 290 310 291
3 310 311 291
3 291 311 292
3 311 312 292
3 292 312 293
3 312 313 293
3 293 313 294
3 313 314 294
3 294 314 295
3 314 315 295
3 295 315 296
3 315 316 296
3 296 316 297
3 316 317 297
3 297 317 298
3 317 318 298
3 298 318 299
3 318 319 299
3 300 320 301
3 320 321 301
3 301 321 302
3 321 322 302
3 302 322 303
3 322 323 303
3 303 323 304
3 323 324 304
3 304 324 305
3 324 325 305
3 305 325 306
3 325 326 306
3 306 326 307
3 326 327 307
3 307 327 308
3 327 328 308
3 308 328 309
3 328 329 309
3 309 329 310
3 329 330 310
3 310 330 311
3 330 331 311
3 311 331 312
3 331 332 312
3 312 332 313
3 332 333 313
3 313 333 314
3 333 334 314
3 314 334 315
3 334 335 315
3 315 335 316
3 335 336 316
3 316 336 317
3 336 337 317
3 317 337 318
3 337 338 318
3 318 338 319
3 338 339 319
3 320 340 321
3 340 341 321
3 321 341 322
3 341 342 322
3 322 342 323
3 342 343 323
3 323 343 324
3 343 344 324
3 324 344 325
3 344 345 325
3 325 345 326
3 345 346 326
3 326 346 327
3 346 347 327
3 327 347 328
3 347 348 328
3 328 348 329
3 348 349 329
3 329 349 330
3 349 350 330
3 330 350 331
3 350 351 331
3 331 351 332
3 351 352 332
3 332 352 333
3 352 353 333
3 333 353 334
3 353 354 334
3 334 354 335
3 354 355 335
3 335 355 336
3 355 356 336
3 336 356 337
3 356 357 337
3 337 357 338
3 357 358 338
3 338 358 339
3 358 359 339
3 340 360 341
3 360 361 341
3 341 361 342
3 361 362 342
3 342 362 343
3 362 363 343
3 343 363 344
3 363 364 344
3 344 364 345
3 364 365 345
3 345 365 346
3 365 366 346
3 346 366 347
3 366 367 347
3 347 367 348
3 367 368 348
3 348 368 349
3 368 369 349
3 349 369 350
3 369 370 350
3 350 370 351
3 370 371 351
3 351 371 352
3 371 372 352
3 352 372 353
3 372 373 353
3 353 373 354
3 373 374 354
3 354 374 355
3 374 375 355
3 355 375 356
3 375 376 356
3 356 376 357
3 376 377 357
3 357 377 358
3 377 378 358
3 358 378 359
3 378 379 359
3 360 380 361
3 380 381 361
3 361 381 362
3 381 382 362
3 362 382 363
3 382 383 363
3 363 383 364
3 383 384 364
3 364 384 365
3 384 385 365
3 365 385 366
3 385 386 366
3 366 386 367
3 386 387 367
3 367 387 368
3 387 388 368
3 368 388 369
3 388 389 369
3 369 389 370
3 389 390 370
3 370 390 371
3 390 391 371
3 371 391 372
3 391 392 372
3 372 392 373
3 392 393 373
3 373 393 374
3 393 394 374
3 374 394 375
3 394 395 375
3 375 395 376
3 395 396 376
3 376 396 377
3 396 397 377
3 377 397 378
3 397 398 378
3 378 398 379
3 398 399 379
